<svg width="16" height="17" viewBox="0 0 16 17" fill="none" xmlns="http://www.w3.org/2000/svg">
<path d="M10.6667 3.32922L11.1206 3.37124C11.9273 3.44595 12.4721 3.71679 12.831 4.09788C13.1609 4.44802 13.3743 4.93418 13.4551 5.56004H2.54488C2.62573 4.93418 2.83912 4.44802 3.16894 4.09788C3.52792 3.71679 4.07264 3.44595 4.87942 3.37124L5.33332 3.32922V3.33337H5.83332H10.1667H10.6667V3.32922Z" fill="#292D32" stroke="#464646"/>
<path d="M13.3333 7.06006H2.66667C2.3 7.06006 2 7.36006 2 7.72673V11.8334C2 13.8334 3 15.1667 5.33333 15.1667H10.6667C13 15.1667 14 13.8334 14 11.8334V7.72673C14 7.36006 13.7 7.06006 13.3333 7.06006ZM6.14 12.6401C6.07333 12.7001 6 12.7467 5.92 12.7801C5.84 12.8134 5.75333 12.8334 5.66667 12.8334C5.58 12.8334 5.49333 12.8134 5.41333 12.7801C5.33333 12.7467 5.26 12.7001 5.19333 12.6401C5.07333 12.5134 5 12.3401 5 12.1667C5 11.9934 5.07333 11.8201 5.19333 11.6934C5.26 11.6334 5.33333 11.5867 5.41333 11.5534C5.57333 11.4867 5.76 11.4867 5.92 11.5534C6 11.5867 6.07333 11.6334 6.14 11.6934C6.26 11.8201 6.33333 11.9934 6.33333 12.1667C6.33333 12.3401 6.26 12.5134 6.14 12.6401ZM6.28 10.0867C6.24667 10.1667 6.2 10.2401 6.14 10.3067C6.07333 10.3667 6 10.4134 5.92 10.4467C5.84 10.4801 5.75333 10.5001 5.66667 10.5001C5.58 10.5001 5.49333 10.4801 5.41333 10.4467C5.33333 10.4134 5.26 10.3667 5.19333 10.3067C5.13333 10.2401 5.08667 10.1667 5.05333 10.0867C5.02 10.0067 5 9.92006 5 9.83339C5 9.74673 5.02 9.66006 5.05333 9.58006C5.08667 9.50006 5.13333 9.42673 5.19333 9.36006C5.26 9.30006 5.33333 9.25339 5.41333 9.22006C5.57333 9.15339 5.76 9.15339 5.92 9.22006C6 9.25339 6.07333 9.30006 6.14 9.36006C6.2 9.42673 6.24667 9.50006 6.28 9.58006C6.31333 9.66006 6.33333 9.74673 6.33333 9.83339C6.33333 9.92006 6.31333 10.0067 6.28 10.0867ZM8.47333 10.3067C8.40667 10.3667 8.33333 10.4134 8.25333 10.4467C8.17333 10.4801 8.08667 10.5001 8 10.5001C7.91333 10.5001 7.82667 10.4801 7.74667 10.4467C7.66667 10.4134 7.59333 10.3667 7.52667 10.3067C7.40667 10.1801 7.33333 10.0067 7.33333 9.83339C7.33333 9.66006 7.40667 9.48673 7.52667 9.36006C7.59333 9.30006 7.66667 9.25339 7.74667 9.22006C7.90667 9.14673 8.09333 9.14673 8.25333 9.22006C8.33333 9.25339 8.40667 9.30006 8.47333 9.36006C8.59333 9.48673 8.66667 9.66006 8.66667 9.83339C8.66667 10.0067 8.59333 10.1801 8.47333 10.3067Z" fill="#292D32"/>
</svg>
