<svg width="14" height="15" viewBox="0 0 14 15" fill="none" xmlns="http://www.w3.org/2000/svg">
<path d="M12.25 3.98844C10.3075 3.79594 8.35333 3.69678 6.405 3.69678C5.25 3.69678 4.095 3.75511 2.94 3.87178L1.75 3.98844" fill="#E50000"/>
<path d="M12.25 3.98844C10.3075 3.79594 8.35333 3.69678 6.405 3.69678C5.25 3.69678 4.095 3.75511 2.94 3.87178L1.75 3.98844" stroke="#E50000" stroke-width="1.5" stroke-linecap="round" stroke-linejoin="round"/>
<path d="M4.95825 3.39925L5.08659 2.63508C5.17992 2.08091 5.24992 1.66675 6.23575 1.66675H7.76409C8.74992 1.66675 8.82575 2.10425 8.91325 2.64091L9.04159 3.39925" stroke="#E50000" stroke-width="1.5" stroke-linecap="round" stroke-linejoin="round"/>
<path d="M10.9958 5.83179L10.6167 11.706C10.5525 12.6218 10.5 13.3335 8.87248 13.3335H5.12748C3.49998 13.3335 3.44748 12.6218 3.38332 11.706L3.00415 5.83179" stroke="#E50000" stroke-width="1.5" stroke-linecap="round" stroke-linejoin="round"/>
<path d="M6.02588 10.125H7.96838" stroke="#E50000" stroke-width="1.5" stroke-linecap="round" stroke-linejoin="round"/>
<path d="M5.54175 7.79175H8.45841" stroke="#E50000" stroke-width="1.5" stroke-linecap="round" stroke-linejoin="round"/>
</svg>
