<svg width="100" height="100" viewBox="0 0 100 100" fill="none" xmlns="http://www.w3.org/2000/svg">
<g clip-path="url(#clip0_308_3569)">
<rect width="100" height="100" rx="50" fill="black" fill-opacity="0.4"/>
<path d="M51.8668 13.3779C41.9002 13.5613 35.5335 17.5863 32.8002 23.8446C30.1918 29.8029 30.7752 37.3279 32.6668 45.1113C31.6502 46.3029 30.8418 47.9029 31.1335 50.3113C31.4502 52.9363 32.1752 54.8029 33.2002 56.1113C33.7668 56.8279 34.5085 56.8946 35.2002 57.2446C35.5752 59.4779 36.2002 61.7113 37.1335 63.5779C37.6668 64.6529 38.2752 65.6446 38.8668 66.4446C39.1335 66.8029 39.5168 67.0113 39.8002 67.3113C39.8168 69.9446 39.8252 72.1363 39.6002 74.9113C38.9085 76.5863 37.2918 77.9363 34.6668 79.2446C31.9585 80.5946 28.4335 81.8446 24.8668 83.3779C21.3002 84.9113 17.6335 86.7779 14.7335 89.7113C11.8335 92.6446 9.7835 96.6696 9.46683 101.978L9.3335 104.245H94.9335L94.8002 101.978C94.4835 96.6696 92.4252 92.6446 89.5335 89.7113C86.6418 86.7779 83.0168 84.9113 79.4668 83.3779C75.9168 81.8446 72.4335 80.5946 69.7335 79.2446C67.1418 77.9446 65.5085 76.6279 64.8002 74.9779C64.5668 72.1696 64.5835 69.9696 64.6002 67.3113C64.8835 67.0029 65.2668 66.8029 65.5335 66.4446C66.1168 65.6363 66.6752 64.6446 67.2002 63.5779C68.1085 61.7113 68.7668 59.4696 69.1335 57.2446C69.8002 56.8946 70.5168 56.8113 71.0668 56.1113C72.0918 54.8029 72.8168 52.9363 73.1335 50.3113C73.4168 47.9779 72.6335 46.4363 71.6668 45.2446C72.7085 41.8613 74.0418 36.3946 73.6002 30.7779C73.3585 27.7113 72.5752 24.6529 70.7335 22.1113C69.0502 19.7779 66.3168 18.0779 62.8668 17.3779C60.6252 14.4696 56.5918 13.3779 51.9335 13.3779H51.8668Z" fill="#E5E5E5"/>
<path d="M58.5 48.19H55.61C53.24 48.19 51.31 46.26 51.31 43.89V41C51.31 40.45 50.86 40 50.31 40H46.07C42.99 40 40.5 42 40.5 45.57V54.43C40.5 58 42.99 60 46.07 60H53.93C57.01 60 59.5 58 59.5 54.43V49.19C59.5 48.64 59.05 48.19 58.5 48.19ZM49.53 51.53C49.38 51.68 49.19 51.75 49 51.75C48.81 51.75 48.62 51.68 48.47 51.53L47.75 50.81V55C47.75 55.41 47.41 55.75 47 55.75C46.59 55.75 46.25 55.41 46.25 55V50.81L45.53 51.53C45.24 51.82 44.76 51.82 44.47 51.53C44.18 51.24 44.18 50.76 44.47 50.47L46.47 48.47C46.54 48.41 46.61 48.36 46.69 48.32C46.71 48.31 46.74 48.3 46.76 48.29C46.82 48.27 46.88 48.26 46.95 48.25C46.98 48.25 47 48.25 47.03 48.25C47.11 48.25 47.19 48.27 47.27 48.3C47.28 48.3 47.28 48.3 47.29 48.3C47.37 48.33 47.45 48.39 47.51 48.45C47.52 48.46 47.53 48.46 47.53 48.47L49.53 50.47C49.82 50.76 49.82 51.24 49.53 51.53Z" fill="#1611C4"/>
<path d="M55.4299 46.81C56.3799 46.82 57.6999 46.82 58.8299 46.82C59.3999 46.82 59.6999 46.15 59.2999 45.75C57.8599 44.3 55.2799 41.69 53.7999 40.21C53.3899 39.8 52.6799 40.08 52.6799 40.65V44.14C52.6799 45.6 53.9199 46.81 55.4299 46.81Z" fill="#1611C4"/>
</g>
<rect x="0.5" y="0.5" width="99" height="99" rx="49.5" stroke="#909090"/>
<defs>
<clipPath id="clip0_308_3569">
<rect width="100" height="100" rx="50" fill="white"/>
</clipPath>
</defs>
</svg>